<svg xmlns="http://www.w3.org/2000/svg" viewBox="0 0 34.48 33.71"><defs><style>.cls-1{fill:none;stroke:#fff;stroke-linecap:round;stroke-linejoin:round;stroke-width:0.75px;}</style></defs><title>competition</title><g id="レイヤー_2" data-name="レイヤー 2"><g id="レイヤー_1-2" data-name="レイヤー 1"><path class="cls-1" d="M25.88,29A15,15,0,1,1,15.33,3.41V18.23h0v.15L25.88,29Zm8.23-11v.14a14.92,14.92,0,0,1-4.42,10.62L19.14,18.09V18ZM18,.38A15,15,0,0,1,33,15.19H18V.38ZM14.32,3.45.41,17.36M15.33,7.78.88,22.24m14.45-9.11L2.46,26m12.93-7.57L4.81,29m13.24-7.9L7.84,31.33m12.88-7.54-9.09,9.09m11.75-6.41-6.81,6.82"/></g></g></svg>