<svg xmlns="http://www.w3.org/2000/svg" viewBox="0 0 33.66 32.07"><defs><style>.cls-1{fill:none;stroke:#fff;stroke-linecap:round;stroke-linejoin:round;stroke-width:0.75px;}</style></defs><title>property</title><g id="レイヤー_2" data-name="レイヤー 2"><g id="レイヤー_1-2" data-name="レイヤー 1"><path class="cls-1" d="M22.17,8V30.52A1.2,1.2,0,0,1,21,31.7H1.55A1.18,1.18,0,0,1,.38,30.52v-29A1.17,1.17,0,0,1,1.55.38h13"/><path class="cls-1" d="M22.17,8H15.68a1.17,1.17,0,0,1-1.17-1.18V.38L22.17,8Z"/><path class="cls-1" d="M26.34,4.31h4.2V26.1c0,4.34-4.2,4.34-4.2,0V4.31Z"/><polyline class="cls-1" points="33.27 15.88 33.28 7.74 26.31 7.74"/><line class="cls-1" x1="28.37" y1="31.7" x2="28.37" y2="29.35"/><line class="cls-1" x1="5.08" y1="6.68" x2="11.27" y2="6.68"/><line class="cls-1" x1="5.08" y1="12.54" x2="17.47" y2="12.54"/><line class="cls-1" x1="5.08" y1="15.96" x2="17.47" y2="15.96"/><line class="cls-1" x1="5.08" y1="19.39" x2="17.47" y2="19.39"/><line class="cls-1" x1="5.08" y1="22.81" x2="11.27" y2="22.81"/></g></g></svg>