<svg xmlns="http://www.w3.org/2000/svg" viewBox="0 0 25.46 10.58"><defs><style>.cls-1{fill:none;stroke:#fff;stroke-miterlimit:10;stroke-width:0.5px;}</style></defs><g id="レイヤー_2" data-name="レイヤー 2"><g id="レイヤー_1-2" data-name="レイヤー 1"><path class="cls-1" d="M5.68,1.43A.73.73,0,0,0,5,2.16V4.51a.73.73,0,1,0,1.46,0V2.16A.72.72,0,0,0,5.68,1.43Z"/><path class="cls-1" d="M1,1.43a.73.73,0,0,0-.73.73V4.51a.73.73,0,0,0,1.46,0V2.16A.72.72,0,0,0,1,1.43Z"/><path class="cls-1" d="M4.51.25H2.16A.73.73,0,0,0,1.43,1a.72.72,0,0,0,.73.73H4.51a.73.73,0,0,0,0-1.46Z"/><path class="cls-1" d="M5.68,5.34A.73.73,0,0,0,5,6.07V8.42a.73.73,0,1,0,1.46,0V6.07A.73.73,0,0,0,5.68,5.34Z"/><path class="cls-1" d="M1,5.34a.73.73,0,0,0-.73.73V8.42A.73.73,0,0,0,1,9.15a.72.72,0,0,0,.73-.73V6.07A.73.73,0,0,0,1,5.34Z"/><path class="cls-1" d="M4.51,8.87H2.16a.73.73,0,0,0,0,1.46H4.51a.73.73,0,0,0,0-1.46Z"/><path class="cls-1" d="M24.48,1.43a.73.73,0,0,0-.73.73V4.51a.73.73,0,1,0,1.46,0V2.16A.72.72,0,0,0,24.48,1.43Z"/><path class="cls-1" d="M19.78,1.43a.73.73,0,0,0-.73.73V4.51a.73.73,0,0,0,1.46,0V2.16A.72.72,0,0,0,19.78,1.43Z"/><path class="cls-1" d="M23.31.25H21a.73.73,0,0,0-.73.73.72.72,0,0,0,.73.73h2.35a.73.73,0,1,0,0-1.46Z"/><path class="cls-1" d="M24.48,5.34a.73.73,0,0,0-.73.73V8.42a.73.73,0,1,0,1.46,0V6.07A.73.73,0,0,0,24.48,5.34Z"/><path class="cls-1" d="M19.78,5.34a.73.73,0,0,0-.73.73V8.42a.73.73,0,0,0,1.46,0V6.07A.73.73,0,0,0,19.78,5.34Z"/><path class="cls-1" d="M23.31,8.87H21a.73.73,0,0,0,0,1.46h2.35a.73.73,0,0,0,0-1.46Z"/><path class="cls-1" d="M16.65,1.43a.72.72,0,0,0-.73.73V4.51a.73.73,0,1,0,1.46,0V2.16A.73.73,0,0,0,16.65,1.43Z"/><path class="cls-1" d="M12,1.43a.72.72,0,0,0-.73.73V4.51a.73.73,0,0,0,1.46,0V2.16A.73.73,0,0,0,12,1.43Z"/><path class="cls-1" d="M15.47.25H13.12a.73.73,0,0,0,0,1.46h2.35A.72.72,0,0,0,16.2,1,.73.73,0,0,0,15.47.25Z"/><path class="cls-1" d="M16.65,5.34a.73.73,0,0,0-.73.73V8.42a.73.73,0,1,0,1.46,0V6.07A.73.73,0,0,0,16.65,5.34Z"/><path class="cls-1" d="M12,5.34a.73.73,0,0,0-.73.73V8.42a.73.73,0,1,0,1.46,0V6.07A.73.73,0,0,0,12,5.34Z"/><path class="cls-1" d="M15.47,8.87H13.12a.73.73,0,0,0,0,1.46h2.35a.73.73,0,1,0,0-1.46Z"/><path class="cls-1" d="M9.33,2.81a.72.72,0,1,0,.22.52A.74.74,0,0,0,9.33,2.81Z"/><path class="cls-1" d="M9.33,6.73a.74.74,0,0,0-1,0,.72.72,0,0,0,0,1,.74.74,0,0,0,1,0,.72.72,0,0,0,0-1Z"/></g></g></svg>