<svg xmlns="http://www.w3.org/2000/svg" viewBox="0 0 29.63 35.49"><defs><style>.cls-1{fill:none;stroke:#fff;stroke-linecap:round;stroke-linejoin:round;stroke-width:0.75px;}</style></defs><title>corporate</title><g id="レイヤー_2" data-name="レイヤー 2"><g id="レイヤー_1-2" data-name="レイヤー 1"><polyline class="cls-1" points="0.38 35 0.55 0.38 21.67 0.48 21.49 35.11"/><polyline class="cls-1" points="22.11 6.26 29.25 6.3 29.11 34.15"/><polyline class="cls-1" points="8.99 34.61 9.01 31.47 12.9 31.49 12.88 34.63"/><line class="cls-1" x1="3.7" y1="4.1" x2="18.49" y2="4.18"/><line class="cls-1" x1="25.29" y1="12.42" x2="25.3" y2="10.63"/><line class="cls-1" x1="25.26" y1="18.45" x2="25.26" y2="16.66"/><line class="cls-1" x1="25.22" y1="24.49" x2="25.23" y2="22.7"/><line class="cls-1" x1="25.19" y1="30.53" x2="25.2" y2="28.74"/><line class="cls-1" x1="3.68" y1="7.61" x2="18.48" y2="7.68"/><line class="cls-1" x1="3.66" y1="11.11" x2="18.46" y2="11.19"/><line class="cls-1" x1="3.64" y1="14.61" x2="18.44" y2="14.69"/><line class="cls-1" x1="3.62" y1="18.12" x2="18.42" y2="18.19"/><line class="cls-1" x1="3.6" y1="21.62" x2="18.4" y2="21.69"/><line class="cls-1" x1="3.59" y1="25.12" x2="18.39" y2="25.2"/><line class="cls-1" x1="3.57" y1="28.62" x2="18.37" y2="28.7"/><line class="cls-1" x1="3.46" y1="32.18" x2="6.19" y2="32.19"/><line class="cls-1" x1="15.61" y1="32.24" x2="18.35" y2="32.25"/></g></g></svg>