<svg xmlns="http://www.w3.org/2000/svg" viewBox="0 0 23.49 23.49"><defs><style>.cls-1{fill:#fff;fill-rule:evenodd;}</style></defs><title>アセット 11</title><g id="レイヤー_2" data-name="レイヤー 2"><g id="レイヤー_1-2" data-name="レイヤー 1"><path class="cls-1" d="M13.37.71A9,9,0,0,1,16.5,4.16a11.64,11.64,0,0,1,.61,1.33h0a39,39,0,0,1,4.27.68,11.14,11.14,0,0,0-8-5.46Zm8.4,6.14a11.1,11.1,0,0,1,1.12,4.6h-4.7a17.73,17.73,0,0,0-.85-5.34,40.87,40.87,0,0,1,4.43.74ZM22.89,12h-4.7a17.73,17.73,0,0,1-.85,5.34,38.5,38.5,0,0,0,4.43-.75A11.05,11.05,0,0,0,22.89,12ZM21.4,17.32a11.42,11.42,0,0,1-1.77,2.31,11.2,11.2,0,0,1-6.26,3.15,9,9,0,0,0,3.13-3.45A12.48,12.48,0,0,0,17.11,18h0a41.54,41.54,0,0,0,4.27-.68Zm-9.64,6.17h0A11.75,11.75,0,0,1,11.73,0h0a11.75,11.75,0,0,1,0,23.49Zm-1.65-.71A8.86,8.86,0,0,1,7,19.33,12.52,12.52,0,0,1,6.37,18h0a41.34,41.34,0,0,1-4.26-.68,11.15,11.15,0,0,0,8,5.46ZM1.72,16.63a38.5,38.5,0,0,0,4.43.75A17.13,17.13,0,0,1,5.3,12H.6a11.05,11.05,0,0,0,1.12,4.59ZM.6,11.45H5.3a17.13,17.13,0,0,1,.85-5.34,40.87,40.87,0,0,0-4.43.74A11.1,11.1,0,0,0,.6,11.45ZM2.09,6.17a38.79,38.79,0,0,1,4.26-.68h0A11.66,11.66,0,0,1,7,4.16,8.86,8.86,0,0,1,10.11.71,11.11,11.11,0,0,0,3.86,3.86,10.82,10.82,0,0,0,2.09,6.17ZM6.8,17.45c1.48.14,3,.23,4.65.23V12H5.89a16.75,16.75,0,0,0,.91,5.41Zm5.24.23V12H17.6a16.75,16.75,0,0,1-.91,5.41c-1.48.14-3,.23-4.65.23Zm4.41.39c-1.42.12-2.89.2-4.41.21v4.5A7.76,7.76,0,0,0,16,19.05c.17-.31.32-.64.47-1Zm-5,.21c-1.52,0-3-.09-4.41-.21a9.85,9.85,0,0,0,.47,1,7.72,7.72,0,0,0,3.94,3.73v-4.5ZM16.69,6a16.71,16.71,0,0,1,.91,5.41H12V5.8c1.61,0,3.17.09,4.65.24ZM11.45,5.8Q9,5.82,6.8,6a16.71,16.71,0,0,0-.91,5.41h5.56V5.8ZM7,5.42c1.41-.13,2.89-.2,4.41-.21V.71A7.72,7.72,0,0,0,7.51,4.44a9.85,9.85,0,0,0-.47,1Zm5-.21V.71A7.76,7.76,0,0,1,16,4.44c.17.31.32.64.47,1Q14.32,5.23,12,5.21Z"/></g></g></svg>