<svg xmlns="http://www.w3.org/2000/svg" viewBox="0 0 37.24 32.01"><defs><style>.cls-1,.cls-2{fill:none;stroke:#fff;stroke-width:0.75px;}.cls-1{stroke-linecap:round;stroke-linejoin:round;}.cls-2{stroke-miterlimit:22.93;}</style></defs><title>organization</title><g id="レイヤー_2" data-name="レイヤー 2"><g id="レイヤー_1-2" data-name="レイヤー 1"><path class="cls-1" d="M.38,31.63H36.86M2.36,21.26H7.23v10.3H2.36V21.26Zm9.21-9.21h4.88V31.56H11.57V12.05Zm9.22,8.22h4.87V31.56H20.79V20.27ZM30,16h4.88V31.56H30V16Z"/><path class="cls-2" d="M4.79,9.73a2.82,2.82,0,1,0,2.82,2.82A2.81,2.81,0,0,0,4.79,9.73ZM14,.38a2.81,2.81,0,1,0,2.81,2.81A2.81,2.81,0,0,0,14,.38Zm9.22,8.36A2.82,2.82,0,1,0,26,11.56a2.82,2.82,0,0,0-2.81-2.82Zm9.21-4.25A2.82,2.82,0,1,0,35.26,7.3a2.81,2.81,0,0,0-2.82-2.81Z"/><path class="cls-1" d="M7.31,10,11.66,5.7m4.89-.21,4.39,4m5.06.85,3.3-1.61"/></g></g></svg>