<svg xmlns="http://www.w3.org/2000/svg" viewBox="0 0 40.21 24.58"><defs><style>.cls-1{fill:#fff;fill-rule:evenodd;}</style></defs><title>finance</title><g id="レイヤー_2" data-name="レイヤー 2"><g id="レイヤー_1-2" data-name="レイヤー 1"><path class="cls-1" d="M37.15,3.31H24V5.63a7.63,7.63,0,0,1,2.38,2.69,8.44,8.44,0,0,1,0,7.93A7.55,7.55,0,0,1,24,18.94v2.33H37.15v-18ZM20.5.8v23h2.55V.8Zm-.79,23V.8H17.16v23ZM1.39,0H38.82a1.42,1.42,0,0,1,1,.41,1.38,1.38,0,0,1,.4,1V23.18a1.41,1.41,0,0,1-.4,1l0,0a1.39,1.39,0,0,1-1,.39H1.39a1.39,1.39,0,0,1-1-.41h0a1.42,1.42,0,0,1-.41-1V1.39a1.39,1.39,0,0,1,.41-1h0a1.39,1.39,0,0,1,1-.41ZM38.82.8a.56.56,0,0,1,.42.17.6.6,0,0,1,.18.42V23.18a.56.56,0,0,1-.18.42v0a.6.6,0,0,1-.41.16h-15V22.06h13.7a.4.4,0,0,0,.4-.4V2.91a.4.4,0,0,0-.4-.4H23.85V.8ZM16.36.8h-15A.59.59,0,0,0,1,1H1a.59.59,0,0,0-.17.42V23.18a.6.6,0,0,0,.17.43.63.63,0,0,0,.42.17h15V22.06H2.67a.4.4,0,0,1-.4-.4V2.91a.4.4,0,0,1,.4-.4H16.36V.8Zm16.93,10a1.51,1.51,0,0,1,1.06.44,1.51,1.51,0,0,1,0,2.13h0a1.51,1.51,0,0,1-2.13,0l0,0a1.48,1.48,0,0,1-.42-1,1.5,1.5,0,0,1,1.51-1.5Zm.5,1a.71.71,0,0,1,0,1h0a.71.71,0,0,1-1,0v0a.71.71,0,0,1-.19-.49.75.75,0,0,1,.2-.5.71.71,0,0,1,1,0Zm-26.86-1a1.54,1.54,0,0,0-1,.41l0,0a1.51,1.51,0,0,0-.44,1.06,1.53,1.53,0,0,0,.44,1.07h0a1.53,1.53,0,0,0,1.07.44A1.51,1.51,0,0,0,8,13.36a1.51,1.51,0,0,0,0-2.13H8a1.51,1.51,0,0,0-1.06-.44Zm.5,1a.69.69,0,0,0-.5-.21.76.76,0,0,0-.49.19l0,0a.74.74,0,0,0,0,1h0a.71.71,0,1,0,1-1ZM5.86,13.36V12.8a.4.4,0,0,0,0,.56Zm-1.28,6h4.7a.4.4,0,0,0,.4-.4.39.39,0,0,0-.4-.39H4.58a.39.39,0,0,0-.4.39.4.4,0,0,0,.4.4Zm26.35,0a.39.39,0,0,1-.39-.4.38.38,0,0,1,.39-.39h4.71A.39.39,0,0,1,36,19a.4.4,0,0,1-.4.4ZM30.93,6a.4.4,0,0,1,0-.8h4.71a.4.4,0,0,1,0,.8ZM4.58,6h4.7a.4.4,0,1,0,0-.8H4.58a.4.4,0,1,0,0,.8ZM24,6.63A7,7,0,0,1,25.68,8.7a7.69,7.69,0,0,1,0,7.18A7.11,7.11,0,0,1,24,18V6.63Zm-7.76,0A6.83,6.83,0,0,0,14.54,8.7a7.69,7.69,0,0,0,0,7.18A7,7,0,0,0,16.23,18V6.63ZM13.84,8.32a7.76,7.76,0,0,1,2.39-2.69V3.31H3.06v18H16.23V18.94a7.67,7.67,0,0,1-2.39-2.69,8.44,8.44,0,0,1,0-7.93Z"/></g></g></svg>