<svg xmlns="http://www.w3.org/2000/svg" viewBox="0 0 35.14 22.27"><defs><style>.cls-1{fill:#fff;fill-rule:evenodd;}</style></defs><title>アセット 10</title><g id="レイヤー_2" data-name="レイヤー 2"><g id="レイヤー_1-2" data-name="レイヤー 1"><path class="cls-1" d="M11.65,7.45h0Zm-1.52,9.81,1.9-3-.41-.14L11.18,14a.67.67,0,0,0-.37,0h0a.69.69,0,0,0-.26.17l-.21.3L9,16.24a.81.81,0,0,0,0,.22.42.42,0,0,0,.1.2.45.45,0,0,0,.18.15l.83.45ZM29.18,0h5.58a.37.37,0,0,1,.38.36V14.72a.37.37,0,0,1-.38.35H29.18a.37.37,0,0,1-.38-.35v-.63l-1.72,1.07h0a1.09,1.09,0,0,1,.14.38,1.11,1.11,0,0,1-.08.69l-.12.27a8.34,8.34,0,0,1-1.19,1.95,8.87,8.87,0,0,1-1.69,1.59L21.45,22a1.39,1.39,0,0,1-.73.27,1.47,1.47,0,0,1-.76-.18l-2.47-1.38a1.42,1.42,0,0,1-.29.31h0a1.21,1.21,0,0,1-.46.21,1.33,1.33,0,0,1-.52,0,1.41,1.41,0,0,1-.49-.16h0L8.92,17.43a1.27,1.27,0,0,1-.41-.34,1.17,1.17,0,0,1-.22-.48,1,1,0,0,1,0-.51,1.8,1.8,0,0,1,.05-.19l-2-1.67v.48a.37.37,0,0,1-.38.35H.38A.37.37,0,0,1,0,14.72V.36A.37.37,0,0,1,.38,0H6a.37.37,0,0,1,.38.36V.65l2.78.82a1.29,1.29,0,0,1,.77.61A1.15,1.15,0,0,1,10,3v0l3.28.27h0l6.37.71c.52-.14,1.06-.27,1.64-.39l4-.85A1.2,1.2,0,0,1,25.42,2a1.31,1.31,0,0,1,.78-.61L28.8.65V.36A.37.37,0,0,1,29.18,0ZM26.59,14.62l.07,0,2-1.25.1-.05L25.51,3.52l-4.07.86c-.58.12-1.12.25-1.65.4h0l-.38.11c-.66.2-1.31.42-2,.68L12.5,7.48l.2.39a1.85,1.85,0,0,0,.92.87,2,2,0,0,0,1.29.1L19.6,7.65a.41.41,0,0,1,.39.12l6.6,6.85Zm-13.84-.11.28.11a5.86,5.86,0,0,1,.67.32c.22.11.43.24.64.37l-2,3.14-1.51-.83,2-3.11ZM13,18.8l1.6.88,1.84-2.86L15,15.74,13,18.8ZM15.21,20l.87.47h0a.51.51,0,0,0,.22.07.83.83,0,0,0,.22,0,.47.47,0,0,0,.2-.1h0a.56.56,0,0,0,.14-.16l1.06-1.77a.53.53,0,0,0,.07-.37.54.54,0,0,0-.21-.31L17,17.26,15.21,20Zm-8.7-6.6L8.74,15.3,9.9,13.74h0a1.34,1.34,0,0,1,.69-.48h0a1.41,1.41,0,0,1,.86,0l1.31.46a9.92,9.92,0,0,1,1.31.56,9.08,9.08,0,0,1,1,.6h0l.06.05.16.11,3,2.21a1.52,1.52,0,0,1,.34.38l4,2.6,1.07-.77.39-.3-5.71-4.12a.35.35,0,0,1-.08-.5.41.41,0,0,1,.54-.06l5.8,4.18a6.28,6.28,0,0,0,.61-.66c.16-.2.31-.4.45-.61l-5.11-4.28a.35.35,0,0,1,0-.51.4.4,0,0,1,.54,0l5,4.18c.1-.17.18-.36.27-.55l.12-.26a.53.53,0,0,0,0-.3.45.45,0,0,0-.14-.27l-6.74-7L15.1,9.53a2.76,2.76,0,0,1-1.8-.15A2.53,2.53,0,0,1,12,8.17l-.36-.72v0A.34.34,0,0,1,11.85,7l5.25-2c.29-.12.57-.22.85-.32l-4.77-.53h0L9.73,3.79h0L6.51,13.43Zm12.2,5.17a1.19,1.19,0,0,1-.12.29l-.73,1.2,2.49,1.39a.64.64,0,0,0,.33.07.56.56,0,0,0,.31-.11l1-.72L18.71,18.6Zm-12.38-7L9.25,2.82a.49.49,0,0,0,0-.41.52.52,0,0,0-.33-.26L6.33,1.4V11.57ZM5.58.72H.76V14.36H5.58V.72ZM28.8,11V1.4l-2.37.7a.57.57,0,0,0-.34.26.53.53,0,0,0,0,.41L28.8,11Zm.76,2.33h0v1h4.82V.72H29.56V.9h0Z"/></g></g></svg>