<svg xmlns="http://www.w3.org/2000/svg" viewBox="0 0 33.82 33.87"><defs><style>.cls-1{fill:none;stroke:#fff;stroke-linecap:round;stroke-linejoin:round;stroke-width:0.75px;}</style></defs><title>personal</title><g id="レイヤー_2" data-name="レイヤー 2"><g id="レイヤー_1-2" data-name="レイヤー 1"><path class="cls-1" d="M22.45,12.44c-.88,3.06-3.28,5.29-5.56,5.4-2.29-.11-4.69-2.35-5.57-5.42l-.43.06a.9.9,0,0,1-1-.75L9.44,9a.91.91,0,0,1,.75-1l.31,0a4.29,4.29,0,0,1-.21-1.35v-1a4.46,4.46,0,0,1,4.45-4.45h.53a.5.5,0,0,1,0-.24c.28-.72,2.1-.7,4.08,0a10.56,10.56,0,0,1,1.17.53A4.47,4.47,0,0,1,23.3,5.59v1a4.29,4.29,0,0,1-.21,1.35l.3,0a.9.9,0,0,1,.75,1l-.42,2.71a.9.9,0,0,1-1,.75l-.25,0Z"/><path class="cls-1" d="M1.17,33.47.38,26.2v-.76c0-1.7,1.71-2.68,3.15-3s6.21-1.33,7.8-2.43h.09l2.87,13.46L16,24.61l-1.46-3.76h4.71l-1.46,3.76,1.67,8.88L22.4,20h.1c1.58,1.1,6.48,2.17,7.79,2.43s3.16,1.27,3.16,3v.76l-.8,7.27"/></g></g></svg>