<svg xmlns="http://www.w3.org/2000/svg" viewBox="0 0 34.48 32.58"><defs><style>.cls-1{fill:none;stroke:#fff;stroke-linecap:round;stroke-linejoin:round;stroke-width:0.75px;}</style></defs><title>issue</title><g id="レイヤー_2" data-name="レイヤー 2"><g id="レイヤー_1-2" data-name="レイヤー 1"><path class="cls-1" d="M16.08,5a8.35,8.35,0,0,1-6.86,6.86"/><path class="cls-1" d="M16.37,19.21a8.35,8.35,0,0,1,6.81-6.81"/><path class="cls-1" d="M16.1,19,9.32,12.23a1.74,1.74,0,0,0-2.46,0L5.08,14a1.75,1.75,0,0,0,0,2.47l6.78,6.78a1.74,1.74,0,0,0,2.46,0l1.78-1.78a1.74,1.74,0,0,0,0-2.46Z"/><path class="cls-1" d="M27.44,7.67,20.66.88a1.76,1.76,0,0,0-2.46,0L16.42,2.66a1.74,1.74,0,0,0,0,2.46l6.78,6.79a1.76,1.76,0,0,0,2.46,0l1.78-1.78a1.74,1.74,0,0,0,0-2.46Z"/><path class="cls-1" d="M18,16.6,30.29,29.5C32,31.32,35.4,27.76,33.59,26L20.77,13.83"/><line class="cls-1" x1="2.32" y1="28.72" x2="19.2" y2="28.72"/><line class="cls-1" x1="0.38" y1="32.21" x2="21.67" y2="32.21"/></g></g></svg>