<svg xmlns="http://www.w3.org/2000/svg" viewBox="0 0 16.19 26.89"><defs><style>.cls-1{fill:none;stroke:#fff;stroke-miterlimit:10;stroke-width:0.5px;}</style></defs><title>img-aging</title><g id="レイヤー_2" data-name="レイヤー 2"><g id="レイヤー_1-2" data-name="レイヤー 1"><path class="cls-1" d="M8.26,4.66a2.74,2.74,0,1,0-3.84.5A2.73,2.73,0,0,0,8.26,4.66Z"/><path class="cls-1" d="M15.23,11.9,11.66,6.35A2,2,0,0,0,8.28,8.54h0l3.18,5L8.22,16.85c-1.31,1.12-.78,2.56-.59,3.43l1.72,4.54a1.32,1.32,0,0,0,1.58,1,1.34,1.34,0,0,0,1-1.59L11,19l3.38-2.64C16.2,15.27,16.35,13.68,15.23,11.9Z"/><path class="cls-1" d="M3.21,9.16a3,3,0,0,0-3,3V25.85a.79.79,0,0,0,.78.79.79.79,0,0,0,.79-.79V12.13a1.38,1.38,0,0,1,1.39-1.4,1.37,1.37,0,0,1,1,.41,1.36,1.36,0,0,1,.41,1,1.4,1.4,0,0,1-.46,1,.78.78,0,1,0,1,1.17,2.93,2.93,0,0,0,1-2.2A3,3,0,0,0,3.21,9.16Z"/></g></g></svg>