<svg xmlns="http://www.w3.org/2000/svg" viewBox="0 0 32.02 23.61"><defs><style>.cls-1{fill:none;stroke:#fff;stroke-miterlimit:10;stroke-width:0.5px;}</style></defs><title>img-consultation</title><g id="レイヤー_2" data-name="レイヤー 2"><g id="レイヤー_1-2" data-name="レイヤー 1"><g id="レイヤー_2-2" data-name="レイヤー 2"><g id="Capa_1" data-name="Capa 1"><path class="cls-1" d="M11.67,12.12l-1.55-1.55,1.31-3.16h0l-.51-.58a2.12,2.12,0,0,0,1.53,0l-.51.58h0l1.3,3.16-1.54,1.55A22.77,22.77,0,0,0,14.42,12c0-.06,0-.11,0-.15A5.19,5.19,0,0,1,15.9,8.16,6.31,6.31,0,0,0,13,6.53a4,4,0,0,0,1.69-3.21,3.06,3.06,0,1,0-6.11,0,4.06,4.06,0,0,0,1.69,3.2c-2.4.61-4.18,2.69-4.18,4.24C6.13,11.67,8.91,12.12,11.67,12.12Z"/><polygon class="cls-1" points="11.68 12.12 11.68 12.12 11.67 12.12 11.68 12.12"/><path class="cls-1" d="M31.54,16.33c-.23-.61-.58-1.14-.84-1.73H24.17a8.24,8.24,0,0,1-.57,1,11,11,0,0,1,1.49.94h6.53Z"/><path class="cls-1" d="M30.64,14.45,29.2,12.12l1.08,2.48S30.66,14.52,30.64,14.45Z"/><path class="cls-1" d="M15.67,15.55a7,7,0,0,1-.56-1H1.38l2.7-2.48L.25,14.6v1.89H14.19A10.3,10.3,0,0,1,15.67,15.55Z"/><path class="cls-1" d="M21.44,16a5.37,5.37,0,0,0,2.22-4.2,4,4,0,1,0-8,0A5.37,5.37,0,0,0,17.84,16c-3.15.8-5.49,3.53-5.49,5.56,0,2.39,14.56,2.39,14.56,0C26.91,19.54,24.58,16.81,21.44,16Z"/></g></g></g></g></svg>