<svg xmlns="http://www.w3.org/2000/svg" xmlns:xlink="http://www.w3.org/1999/xlink" viewBox="0 0 56.17 35.41"><defs><style>.cls-1{fill:url(#radial-gradient);}.cls-2{fill:url(#radial-gradient-2);}.cls-3{fill:url(#radial-gradient-3);}</style><radialGradient id="radial-gradient" cx="17.58" cy="17.82" r="17.58" gradientUnits="userSpaceOnUse"><stop offset="0.37" stop-color="#15371c"/><stop offset="0.7" stop-color="#328e51"/></radialGradient><radialGradient id="radial-gradient-2" cx="-81.69" cy="228.52" r="17.55" gradientTransform="translate(-43.02 246.11) rotate(180)" xlink:href="#radial-gradient"/><radialGradient id="radial-gradient-3" cx="28.05" cy="17.84" r="5.07" gradientUnits="userSpaceOnUse"><stop offset="0" stop-color="#328e51"/><stop offset="0.61" stop-color="#15371c"/></radialGradient></defs><title>ico-green-ver02</title><g id="レイヤー_2" data-name="レイヤー 2"><g id="レイヤー_2-2" data-name="レイヤー 2"><path class="cls-1" d="M35,17l-10.54.23,10.42-1.6a.2.2,0,0,0,.17-.23l-.22-1.24a.22.22,0,0,0-.23-.17L24.23,16.07l10-3.38a.2.2,0,0,0,.11-.26l-.43-1.19a.21.21,0,0,0-.25-.12l-9.82,3.82,9.24-5.06a.19.19,0,0,0,.07-.27l-.63-1.1a.2.2,0,0,0-.27-.08l-9,5.47,8.22-6.59a.2.2,0,0,0,0-.28l-.81-1a.21.21,0,0,0-.29,0l-7.91,7,7-7.92a.2.2,0,0,0,0-.28l-1-.82a.22.22,0,0,0-.29,0l-6.59,8.22L27,3.2A.2.2,0,0,0,27,2.93l-1.09-.64a.22.22,0,0,0-.28.07L20.52,11.6l3.82-9.82a.19.19,0,0,0-.12-.25L23,1.09a.21.21,0,0,0-.26.12l-3.38,10L21.46.85a.2.2,0,0,0-.17-.23L20.05.4a.21.21,0,0,0-.24.16L18.22,11,18.45.44a.2.2,0,0,0-.2-.2H17a.2.2,0,0,0-.2.2L17,11,15.42.55a.2.2,0,0,0-.23-.16L13.94.61a.2.2,0,0,0-.16.23l2.06,10.33-3.39-10a.2.2,0,0,0-.26-.12L11,1.5a.2.2,0,0,0-.11.26l3.82,9.82L9.64,2.33a.21.21,0,0,0-.27-.07l-1.1.63a.21.21,0,0,0-.07.28l5.47,9L7.07,4a.19.19,0,0,0-.28,0l-1,.82A.2.2,0,0,0,5.8,5l6.94,7.91L4.82,6a.2.2,0,0,0-.28,0L3.73,7a.2.2,0,0,0,0,.28L12,13.85,3,8.38a.21.21,0,0,0-.27.07l-.64,1.1a.2.2,0,0,0,.08.27l9.24,5.07L1.54,11.06a.2.2,0,0,0-.25.12L.85,12.37a.21.21,0,0,0,.13.26L11,16,.61,14a.2.2,0,0,0-.23.16L.16,15.36a.2.2,0,0,0,.17.23l10.41,1.6L.2,17a.2.2,0,0,0-.2.2v1.26a.2.2,0,0,0,.2.2l10.54-.23L.31,20a.2.2,0,0,0-.16.23l.22,1.25a.2.2,0,0,0,.23.16l10.33-2.06L1,23a.22.22,0,0,0-.12.26l.44,1.19a.19.19,0,0,0,.25.12l9.83-3.83L2.1,25.76A.21.21,0,0,0,2,26l.64,1.09a.2.2,0,0,0,.27.08l9-5.47L3.71,28.33a.2.2,0,0,0,0,.28l.81,1a.2.2,0,0,0,.28,0l7.92-6.95L5.75,30.58a.2.2,0,0,0,0,.28l1,.82a.19.19,0,0,0,.28,0l6.59-8.21-5.47,9a.22.22,0,0,0,.07.28l1.1.63a.21.21,0,0,0,.28-.07L14.65,24l-3.82,9.83a.2.2,0,0,0,.11.26l1.19.43a.2.2,0,0,0,.26-.12l3.38-10L13.71,34.79a.2.2,0,0,0,.16.23l1.25.22a.21.21,0,0,0,.24-.16L17,24.67,16.72,35.2a.19.19,0,0,0,.2.2h1.27a.22.22,0,0,0,.2-.2l-.24-10.54,1.6,10.42a.2.2,0,0,0,.23.16L21.23,35a.2.2,0,0,0,.16-.23L19.33,24.47l3.39,10a.19.19,0,0,0,.25.12l1.19-.43a.21.21,0,0,0,.13-.26L19.19,20.8a3.47,3.47,0,0,1-1.61.42,3.4,3.4,0,1,1,3.4-3.4,3.31,3.31,0,0,1-.06.55l14,.32a.2.2,0,0,0,.2-.2V17.22A.2.2,0,0,0,35,17Z"/><path class="cls-2" d="M31.74,18.15l-10.42,1.6a.2.2,0,0,0-.16.23l.22,1.25a.2.2,0,0,0,.23.16l10.33-2.06L22,22.72a.19.19,0,0,0-.12.25l.43,1.19a.21.21,0,0,0,.26.13l9.81-3.83L23.1,25.53a.2.2,0,0,0-.07.27l.63,1.1a.21.21,0,0,0,.28.07l9-5.47-8.22,6.6a.19.19,0,0,0,0,.28l.81,1a.23.23,0,0,0,.29,0l7.91-7-7,7.93a.2.2,0,0,0,0,.28l1,.81a.2.2,0,0,0,.28,0l6.59-8.22-5.47,9a.2.2,0,0,0,.07.27l1.1.63a.2.2,0,0,0,.27-.07l5.06-9.23-3.82,9.81a.2.2,0,0,0,.12.26l1.19.43a.2.2,0,0,0,.26-.11l3.38-10L34.72,34.55a.21.21,0,0,0,.16.24l1.25.22a.21.21,0,0,0,.23-.16L38,24.44,37.72,35a.2.2,0,0,0,.2.2h1.27a.2.2,0,0,0,.2-.2l-.23-10.53,1.6,10.41A.2.2,0,0,0,41,35l1.24-.22a.21.21,0,0,0,.17-.24L40.34,24.23l3.38,10a.21.21,0,0,0,.26.13l1.19-.44a.19.19,0,0,0,.12-.25l-3.83-9.82,5.07,9.24a.19.19,0,0,0,.27.07l1.1-.63a.19.19,0,0,0,.07-.27l-5.46-9,6.59,8.22a.2.2,0,0,0,.28,0l1-.81a.2.2,0,0,0,0-.28l-7-7.92,7.92,7a.2.2,0,0,0,.28,0l.82-1a.21.21,0,0,0,0-.29L44.2,21.55l9,5.48a.2.2,0,0,0,.27-.08l.64-1.09a.21.21,0,0,0-.08-.28l-9.23-5.06,9.82,3.82a.19.19,0,0,0,.25-.12L55.32,23a.19.19,0,0,0-.12-.25l-10-3.39,10.34,2.07a.21.21,0,0,0,.23-.17L56,20a.2.2,0,0,0-.16-.23L45.43,18.22,56,18.45a.2.2,0,0,0,.2-.2V17a.2.2,0,0,0-.2-.2L45.43,17l10.43-1.6a.2.2,0,0,0,.16-.23l-.22-1.25a.2.2,0,0,0-.23-.16L45.24,15.84l10-3.39a.2.2,0,0,0,.12-.25L54.91,11a.21.21,0,0,0-.26-.13l-9.83,3.83,9.26-5.07a.2.2,0,0,0,.07-.27l-.63-1.1a.21.21,0,0,0-.28-.07l-9,5.47,8.22-6.6a.19.19,0,0,0,0-.28l-.82-1a.21.21,0,0,0-.28,0l-7.92,7,7-7.93a.2.2,0,0,0,0-.28l-1-.81a.2.2,0,0,0-.28,0L42.56,12,48,3A.2.2,0,0,0,48,2.69l-1.1-.63a.19.19,0,0,0-.27.07l-5.07,9.24,3.83-9.83a.2.2,0,0,0-.12-.25L44,.86a.2.2,0,0,0-.26.11L40.4,11,42.46.62A.21.21,0,0,0,42.3.38L41.05.16a.2.2,0,0,0-.23.16l-1.6,10.42L39.46.2a.21.21,0,0,0-.2-.2H38a.2.2,0,0,0-.2.2L38,10.73,36.42.31a.2.2,0,0,0-.23-.16L34.94.37a.2.2,0,0,0-.16.23l2.06,10.33L33.46,1A.22.22,0,0,0,33.2.83L32,1.27a.19.19,0,0,0-.12.25L37,14.61a3.32,3.32,0,0,1,1.6-.42,3.4,3.4,0,1,1-3.4,3.39c0-.18,0-.18,0-.36Z"/><path class="cls-3" d="M35,18.66a.2.2,0,0,0,.2-.2V17.22A.2.2,0,0,0,35,17l-10.54.23.23,0-3.73.08a4.36,4.36,0,0,1,.05.52,4.36,4.36,0,0,1-.05.52Z"/></g></g></svg>