<svg xmlns="http://www.w3.org/2000/svg" viewBox="0 0 101.34 10.55"><g id="レイヤー_2" data-name="レイヤー 2"><g id="レイヤー_1-2" data-name="レイヤー 1"><path d="M0,1A.63.63,0,0,1,.68.39.63.63,0,0,1,1.36,1a.64.64,0,0,1-.68.64A.64.64,0,0,1,0,1ZM.18,2.86h1V8.69h-1Z"/><path d="M3.13,2.86H4L4,3.7h0a2.79,2.79,0,0,1,2-1c1.23,0,1.78.8,1.78,2.28v3.7h-1V5.12c0-1.08-.33-1.55-1.1-1.55a2.22,2.22,0,0,0-1.59.9V8.69h-1Z"/><path d="M9.07,2.92l.83-.06h2.18v.8h-3Zm.79-1C9.86.75,10.4,0,11.57,0a2.56,2.56,0,0,1,1,.2l-.2.75A1.69,1.69,0,0,0,11.67.8c-.55,0-.82.39-.82,1.14V8.69h-1Z"/><path d="M12.65,5.78a2.79,2.79,0,0,1,2.7-3.07,2.79,2.79,0,0,1,2.7,3.07,2.72,2.72,0,1,1-5.4,0Zm4.38,0c0-1.33-.68-2.24-1.68-2.24s-1.68.91-1.68,2.24S14.35,8,15.35,8,17,7.12,17,5.78Z"/><path d="M19.16,6.25a5,5,0,0,1,5-5.31,3.72,3.72,0,0,1,3.94,4C28.1,7,26.8,8.1,25.7,8.1a1.11,1.11,0,0,1-1.24-.91h0A2.07,2.07,0,0,1,23,8a1.5,1.5,0,0,1-1.45-1.7c0-1.27.91-2.78,2.31-2.78a1,1,0,0,1,1,.58h0L25,3.62h.65L25.14,6c-.23,1,0,1.41.66,1.41S27.41,6.51,27.41,5A3.09,3.09,0,0,0,24.09,1.6a4.38,4.38,0,0,0-4.2,4.62,3.4,3.4,0,0,0,3.57,3.67,3.83,3.83,0,0,0,1.94-.54l.26.59a4.38,4.38,0,0,1-2.28.61A4,4,0,0,1,19.16,6.25Zm5.12.37.34-1.9a.84.84,0,0,0-.77-.5c-.94,0-1.52,1.13-1.52,2s.36,1.08.84,1.08A1.57,1.57,0,0,0,24.28,6.62Z"/><path d="M29.27,5.78a2.72,2.72,0,1,1,5.4,0,2.72,2.72,0,1,1-5.4,0Zm4.38,0c0-1.33-.68-2.24-1.68-2.24s-1.68.91-1.68,2.24S31,8,32,8,33.65,7.12,33.65,5.78Z"/><path d="M36.16.14h1V5.93h0l2.49-3.07h1.09l-2,2.34L41,8.69H39.92l-1.7-2.8-1.1,1.27V8.69h-1Z"/><path d="M41.85,6.55V2.86h1V6.42c0,1.09.32,1.56,1.1,1.56.59,0,1-.3,1.56-1V2.86h1V8.69h-.81l-.08-.91h0a2.48,2.48,0,0,1-1.92,1C42.4,8.83,41.85,8,41.85,6.55Z"/><path d="M48.46,2.86h.81l.08.84h0a2.75,2.75,0,0,1,2-1c1.23,0,1.78.8,1.78,2.28v3.7h-1V5.12c0-1.08-.33-1.55-1.1-1.55-.6,0-1,.31-1.6.9V8.69h-1Z"/><path d="M54.59,5.78a2.72,2.72,0,1,1,5.4,0,2.72,2.72,0,1,1-5.4,0Zm4.38,0c0-1.33-.68-2.24-1.68-2.24s-1.68.91-1.68,2.24S56.29,8,57.29,8,59,7.12,59,5.78Z"/><path d="M61.48,7.52V.14h1V7.59c0,.3.13.42.28.42L63,8l.14.75a1.61,1.61,0,0,1-.57.09C61.78,8.83,61.48,8.36,61.48,7.52Z"/><path d="M64.17,7.17c0-1.26,1.1-1.9,3.58-2.17,0-.75-.25-1.47-1.2-1.47a3.28,3.28,0,0,0-1.74.62l-.38-.67a4.18,4.18,0,0,1,2.29-.77c1.42,0,2,1,2,2.4V8.69h-.81L67.84,8h0a3.11,3.11,0,0,1-1.93.84A1.59,1.59,0,0,1,64.17,7.17Zm3.58.1V5.65c-2,.23-2.61.71-2.61,1.46s.45.93,1,.93A2.4,2.4,0,0,0,67.75,7.27Z"/><path d="M69.89,2.86h1l.86,3.37c.13.55.24,1.07.35,1.62h0c.13-.55.26-1.08.4-1.62l.9-3.37h1l.91,3.37c.15.55.27,1.07.41,1.62h0c.12-.55.23-1.07.36-1.62L77,2.86h.94L76.36,8.69h-1.2l-.84-3.13c-.14-.56-.25-1.09-.39-1.68h-.05c-.13.59-.24,1.14-.4,1.69l-.82,3.12H71.51Z"/><path d="M78.5,8.08a.73.73,0,0,1,.72-.76.76.76,0,1,1-.72.76Z"/><path d="M81.13,5.78a2.83,2.83,0,0,1,2.81-3.07,2.44,2.44,0,0,1,1.7.69l-.5.65A1.67,1.67,0,0,0,84,3.54c-1.06,0-1.83.91-1.83,2.24S82.88,8,84,8a2.09,2.09,0,0,0,1.37-.58l.43.66a2.82,2.82,0,0,1-1.89.74A2.74,2.74,0,0,1,81.13,5.78Z"/><path d="M86.35,5.78a2.72,2.72,0,1,1,5.4,0,2.72,2.72,0,1,1-5.4,0Zm4.38,0c0-1.33-.67-2.24-1.68-2.24s-1.68.91-1.68,2.24S88.05,8,89.05,8,90.73,7.12,90.73,5.78Z"/><path d="M93.29,2.86h.81l.09.84h0a2.6,2.6,0,0,1,1.81-1,1.54,1.54,0,0,1,1.61,1.12,2.77,2.77,0,0,1,1.93-1.12c1.19,0,1.77.8,1.77,2.28v3.7h-1V5.12c0-1.08-.34-1.55-1.08-1.55a2.15,2.15,0,0,0-1.46.9V8.69h-1V5.12c0-1.08-.34-1.55-1.08-1.55a2.18,2.18,0,0,0-1.47.9V8.69h-1Z"/></g></g></svg>