<?xml version="1.0" encoding="UTF-8" standalone="no"?>
<svg
   viewBox="0 0 150.81819 9.7187815"
   version="1.1"
   id="svg56"
   sodipodi:docname="recruit_staff2.svg"
   inkscape:version="1.1 (c68e22c387, 2021-05-23)"
   width="150.81819"
   height="9.7187805"
   xmlns:inkscape="http://www.inkscape.org/namespaces/inkscape"
   xmlns:sodipodi="http://sodipodi.sourceforge.net/DTD/sodipodi-0.dtd"
   xmlns="http://www.w3.org/2000/svg"
   xmlns:svg="http://www.w3.org/2000/svg">
  <defs
     id="defs60" />
  <sodipodi:namedview
     id="namedview58"
     pagecolor="#ffffff"
     bordercolor="#666666"
     borderopacity="1.0"
     inkscape:pageshadow="2"
     inkscape:pageopacity="0.0"
     inkscape:pagecheckerboard="0"
     showgrid="false"
     inkscape:zoom="7.8675497"
     inkscape:cx="59.23064"
     inkscape:cy="-1.9701178"
     inkscape:window-width="1920"
     inkscape:window-height="1017"
     inkscape:window-x="1912"
     inkscape:window-y="-8"
     inkscape:window-maximized="1"
     inkscape:current-layer="layer1"
     inkscape:snap-nodes="true"
     showguides="false"
     width="151.57001px"
     scale-x="1"
     height="10.5px"
     fit-margin-top="0"
     fit-margin-left="0"
     fit-margin-right="0"
     fit-margin-bottom="0" />
  <g
     id="layer1"
     inkscape:label="レイヤー_2-1"
     transform="translate(-0.17490844,-0.06999491)">
    <g
       aria-label="recruit_staff@okunolaw.com"
       id="text105163"
       style="font-size:10.6667px;line-height:1.25;-inkscape-font-specification:sans-serif;display:inline">
      <path
         d="M 3.8051282,3.4762557 H 3.7530447 Q 3.5342941,3.4241722 3.3259601,3.4033388 3.1228344,3.377297 2.8415835,3.377297 q -0.4531264,0 -0.8750027,0.2031257 Q 1.5447044,3.77834 1.1540782,4.0960493 V 8.2262707 H 0.17490844 V 2.408544 H 1.1540782 V 3.2679217 Q 1.7374134,2.7991702 2.1801231,2.6064613 2.6280412,2.408544 3.0915843,2.408544 q 0.2552092,0 0.3697929,0.015625 0.1145837,0.010417 0.343751,0.046875 z"
         id="path120375" />
      <path
         d="M 9.5968133,5.4189701 H 5.3103414 q 0,0.5364601 0.1614589,0.937503 0.1614588,0.3958346 0.4427097,0.6510437 0.2708342,0.2500008 0.640627,0.3750012 0.3750012,0.1250004 0.8229193,0.1250004 0.5937519,0 1.1927121,-0.2343757 Q 9.174937,7.0335586 9.4301461,6.8043912 h 0.052084 V 7.8721029 Q 8.9874364,8.0804369 8.4718097,8.2210623 7.9561831,8.3616878 7.388473,8.3616878 q -1.4479213,0 -2.2604238,-0.7812525 -0.8125026,-0.7864608 -0.8125026,-2.2291737 0,-1.4270878 0.7760441,-2.2656322 0.7812525,-0.8385443 2.0520898,-0.8385443 1.1770871,0 1.8125058,0.6875022 0.640627,0.6875022 0.640627,1.9531312 z M 8.6436853,4.6689678 Q 8.6384769,3.898132 8.253059,3.4762557 7.8728495,3.0543793 7.091597,3.0543793 q -0.7864608,0 -1.2552123,0.4635432 -0.4635431,0.4635431 -0.5260433,1.1510453 z"
         id="path120377" />
      <path
         d="m 15.38329,7.8616862 q -0.489585,0.2343757 -0.932295,0.3645845 -0.437501,0.1302087 -0.932295,0.1302087 -0.63021,0 -1.156253,-0.1822922 Q 11.836403,7.9866866 11.461402,7.6116854 11.081193,7.2366842 10.872859,6.6637657 10.664525,6.0908473 10.664525,5.3252198 q 0,-1.4270878 0.781252,-2.2395904 0.786461,-0.8125025 2.072923,-0.8125025 0.500002,0 0.97917,0.1406254 0.484377,0.1406255 0.88542,0.3437511 v 1.0885451 h -0.05208 q -0.447922,-0.3489594 -0.92709,-0.53646 -0.47396,-0.1875006 -0.927086,-0.1875006 -0.833336,0 -1.317713,0.5625018 -0.479168,0.5572934 -0.479168,1.6406301 0,1.0520867 0.468751,1.6197968 0.47396,0.5625018 1.32813,0.5625018 0.296876,0 0.604168,-0.078125 0.307293,-0.078125 0.552085,-0.2031257 Q 14.84683,7.1168924 15.03433,6.9971003 15.221831,6.8720999 15.331206,6.783558 h 0.05208 z"
         id="path120379" />
      <path
         d="m 20.268721,3.4762557 h -0.05208 q -0.21875,-0.052083 -0.427084,-0.072917 -0.203126,-0.026042 -0.484377,-0.026042 -0.453126,0 -0.875003,0.2031257 -0.421876,0.1979173 -0.812502,0.5156266 v 4.1302214 h -0.97917 V 2.408544 h 0.97917 V 3.2679217 Q 18.20101,2.7991702 18.64372,2.6064613 19.091638,2.408544 19.555181,2.408544 q 0.255209,0 0.369793,0.015625 0.114583,0.010417 0.343751,0.046875 z"
         id="path120381" />
      <path
         d="m 26.013532,8.2262707 h -0.97917 V 7.5804353 q -0.494793,0.3906262 -0.947919,0.5989602 -0.453127,0.208334 -1.000003,0.208334 -0.91667,0 -1.427088,-0.5572934 Q 21.148933,7.2679343 21.148933,6.1845976 V 2.408544 h 0.97917 v 3.3125104 q 0,0.4427098 0.04167,0.7604191 0.04167,0.312501 0.177084,0.53646 0.140625,0.2291674 0.364584,0.3333344 0.223959,0.104167 0.651044,0.104167 0.38021,0 0.828128,-0.1979173 0.453126,-0.1979173 0.843752,-0.5052099 V 2.408544 h 0.97917 z"
         id="path120383" />
      <path
         d="m 28.992708,1.4345826 h -1.10417 V 0.41895435 h 1.10417 z m -0.0625,6.7916881 h -0.97917 V 2.408544 h 0.97917 z"
         id="path120385" />
      <path
         d="m 33.888558,8.1741872 q -0.276043,0.072917 -0.604169,0.119792 -0.322918,0.046875 -0.578127,0.046875 -0.890628,0 -1.354171,-0.4791682 Q 30.888548,7.382518 30.888548,6.325223 V 3.2314632 h -0.66146 V 2.408544 h 0.66146 V 0.73666368 h 0.97917 V 2.408544 h 2.02084 v 0.8229192 h -2.02084 v 2.6510501 q 0,0.4583348 0.02083,0.7187522 0.02083,0.2552092 0.145834,0.4791682 0.114584,0.208334 0.312501,0.3072927 0.203126,0.09375 0.614585,0.09375 0.239584,0 0.500002,-0.067709 0.260417,-0.072917 0.375001,-0.119792 h 0.05208 z"
         id="path120387" />
      <path
         d="m 40.909411,9.7887756 h -6.822938 v -0.625002 h 6.822938 z"
         id="path120389" />
      <path
         d="m 46.008387,6.549182 q 0,0.7968776 -0.66146,1.3072958 -0.656252,0.5104183 -1.796881,0.5104183 -0.645835,0 -1.187504,-0.1510421 -0.53646,-0.1562505 -0.901044,-0.3385428 V 6.7783494 h 0.05208 q 0.463543,0.3489595 1.031254,0.5572935 0.56771,0.2031256 1.088545,0.2031256 0.645835,0 1.01042,-0.208334 0.364584,-0.208334 0.364584,-0.6562521 0,-0.343751 -0.197917,-0.5208349 Q 44.612549,5.9762636 44.050048,5.8512632 43.841714,5.804388 43.503171,5.7418878 43.169837,5.6793876 42.893794,5.6064707 42.128167,5.4033451 41.805249,5.0127189 41.48754,4.6168843 41.48754,4.0439658 q 0,-0.3593761 0.145833,-0.6770855 0.151042,-0.3177093 0.453127,-0.5677101 0.291667,-0.2447924 0.739585,-0.3854179 0.453127,-0.1458338 1.01042,-0.1458338 0.520835,0 1.052087,0.1302088 0.53646,0.1250004 0.890628,0.3072926 v 1.0468783 h -0.05208 q -0.375001,-0.2760425 -0.911461,-0.4635431 -0.53646,-0.192709 -1.052087,-0.192709 -0.53646,0 -0.906252,0.208334 -0.369793,0.2031257 -0.369793,0.609377 0,0.3593761 0.223959,0.5416683 0.21875,0.1822923 0.708335,0.296876 0.270834,0.0625 0.604169,0.1250004 0.338543,0.0625 0.562502,0.1145837 0.682293,0.1562505 1.052086,0.53646 0.369793,0.3854179 0.369793,1.0208365 z"
         id="path120391" />
      <path
         d="m 50.430275,8.1741872 q -0.276042,0.072917 -0.604168,0.119792 -0.322918,0.046875 -0.578127,0.046875 -0.890628,0 -1.354171,-0.4791682 Q 47.430266,7.382518 47.430266,6.325223 V 3.2314632 H 46.768805 V 2.408544 h 0.661461 V 0.73666368 h 0.979169 V 2.408544 h 2.02084 v 0.8229192 h -2.02084 v 2.6510501 q 0,0.4583348 0.02083,0.7187522 0.02083,0.2552092 0.145834,0.4791682 0.114583,0.208334 0.312501,0.3072927 0.203125,0.09375 0.614585,0.09375 0.239584,0 0.500001,-0.067709 0.260418,-0.072917 0.375002,-0.119792 h 0.05208 z"
         id="path120393" />
      <path
         d="M 56.13342,8.2262707 H 55.159459 V 7.6064771 q -0.130209,0.088542 -0.354168,0.2500007 -0.218751,0.1562505 -0.427085,0.2500008 -0.244792,0.1197921 -0.562502,0.1979173 -0.317709,0.083334 -0.744794,0.083334 -0.78646,0 -1.333337,-0.520835 -0.546877,-0.5208349 -0.546877,-1.3281292 0,-0.6614604 0.281251,-1.0677117 0.286459,-0.4114596 0.812503,-0.6458353 0.531251,-0.2343758 1.276045,-0.3177094 0.744794,-0.083334 1.598964,-0.1250004 V 4.2314664 q 0,-0.3333344 -0.119792,-0.5520851 -0.114584,-0.2187507 -0.333335,-0.3437511 -0.208334,-0.119792 -0.500001,-0.1614588 -0.291668,-0.041667 -0.609377,-0.041667 -0.385418,0 -0.859378,0.104167 -0.47396,0.098959 -0.97917,0.2916676 h -0.05208 V 2.5335444 q 0.286459,-0.078125 0.828127,-0.1718756 0.541669,-0.09375 1.067712,-0.09375 0.614585,0 1.067712,0.104167 0.458335,0.098959 0.791669,0.3437511 0.328126,0.2395841 0.500002,0.6197936 0.171875,0.3802096 0.171875,0.9427113 z M 55.159459,6.7939745 V 5.1741777 q -0.447918,0.026042 -1.057295,0.078125 -0.604169,0.052084 -0.958337,0.1510422 -0.421876,0.119792 -0.682294,0.3750012 -0.260417,0.2500008 -0.260417,0.6927105 0,0.5000016 0.302084,0.7552107 0.302085,0.2500008 0.921878,0.2500008 0.515627,0 0.942712,-0.1979173 0.427084,-0.2031256 0.791669,-0.4843763 z"
         id="path120395" />
      <path
         d="M 61.14906,1.0699981 H 61.09698 Q 60.935521,1.0231231 60.675104,0.9762478 60.414686,0.9241643 60.216769,0.9241643 q -0.63021,0 -0.916669,0.2812509 -0.281251,0.2760425 -0.281251,1.0052115 V 2.408544 h 1.76563 v 0.8229192 h -1.73438 v 4.9948075 h -0.97917 V 3.2314632 h -0.66146 V 2.408544 h 0.66146 V 2.215835 q 0,-1.0364616 0.515627,-1.58854666 0.515626,-0.55729343 1.489588,-0.55729343 0.328126,0 0.588543,0.0312501 0.265626,0.0312501 0.484377,0.0729169 z"
         id="path120397" />
      <path
         d="m 64.899071,1.0699981 h -0.05208 Q 64.685532,1.0231231 64.425114,0.9762478 64.164697,0.9241643 63.96678,0.9241643 q -0.630211,0 -0.91667,0.2812509 -0.281251,0.2760425 -0.281251,1.0052115 V 2.408544 h 1.765631 v 0.8229192 h -1.734381 v 4.9948075 h -0.97917 V 3.2314632 h -0.66146 V 2.408544 h 0.66146 V 2.215835 q 0,-1.0364616 0.515627,-1.58854666 0.515627,-0.55729343 1.489588,-0.55729343 0.328126,0 0.588544,0.0312501 0.265626,0.0312501 0.484376,0.0729169 z"
         id="path120399" />
      <path
         d="m 74.294934,4.7731348 q 0,0.7239606 -0.213543,1.4010461 -0.208334,0.6770854 -0.59896,1.2343789 H 71.190757 L 71.050132,6.8043912 q -0.385418,0.312501 -0.739586,0.4791682 -0.354168,0.1666672 -0.812502,0.1666672 -0.875003,0 -1.401046,-0.6614605 -0.520835,-0.6614604 -0.520835,-1.8489641 0,-1.1822954 0.640627,-1.8854227 0.640627,-0.7031272 1.531254,-0.7031272 0.38021,0 0.671878,0.088542 0.291667,0.083334 0.63021,0.2552091 V 2.4450024 h 0.828128 v 4.3854305 h 1.265629 q 0.21875,-0.3906262 0.328126,-0.9739614 0.114583,-0.5885435 0.114583,-1.0520866 0,-0.8541694 -0.239584,-1.5520883 Q 73.112638,2.5543778 72.654304,2.0543762 72.195969,1.5543746 71.518883,1.2887488 70.841798,1.0179146 69.98242,1.0179146 q -0.833336,0 -1.526046,0.3020843 -0.687502,0.3020842 -1.182296,0.8125025 -0.500001,0.5104183 -0.786461,1.2239622 -0.28125,0.7083356 -0.28125,1.5104215 0,0.8593777 0.270834,1.5729216 0.270834,0.7083356 0.765627,1.2135455 0.515627,0.5260433 1.208337,0.7916692 0.692711,0.2708342 1.510422,0.2708342 0.447918,0 0.921878,-0.057292 0.479168,-0.057292 0.916669,-0.1822922 V 9.215857 q -0.50521,0.1093754 -0.942711,0.1458338 -0.437501,0.041667 -0.901045,0.041667 -0.968753,0 -1.79688,-0.3333344 Q 67.33137,8.7418974 66.737618,8.1481455 66.138658,7.5491853 65.805324,6.710641 65.471989,5.8720967 65.471989,4.8564685 q 0,-0.9635447 0.34896,-1.7916724 0.348959,-0.8333359 0.953128,-1.4427129 0.604168,-0.6093769 1.432296,-0.95833631 0.828128,-0.34895944 1.770839,-0.34895944 1.020836,0 1.822922,0.32291769 0.802086,0.32291768 1.354171,0.90625286 0.552085,0.5833352 0.843753,1.4062544 0.296876,0.817711 0.296876,1.8229224 z M 71.039715,6.101264 V 3.4033388 q -0.328126,-0.1510422 -0.588543,-0.2135424 -0.260418,-0.067709 -0.557294,-0.067709 -0.671877,0 -1.052086,0.4687515 -0.38021,0.4687514 -0.38021,1.3333375 0,0.848961 0.302084,1.2864624 0.302085,0.432293 0.942712,0.432293 0.348959,0 0.697919,-0.1614588 0.348959,-0.1614588 0.635418,-0.380209 z"
         id="path120401" />
      <path
         d="m 81.143916,5.3200115 q 0,1.4218795 -0.729169,2.2447988 -0.729169,0.8229192 -1.953131,0.8229192 -1.234379,0 -1.963548,-0.8229192 -0.723961,-0.8229193 -0.723961,-2.2447988 0,-1.4218795 0.723961,-2.2447988 0.729169,-0.8281276 1.963548,-0.8281276 1.223962,0 1.953131,0.8281276 0.729169,0.8229193 0.729169,2.2447988 z m -1.01042,0 q 0,-1.1302119 -0.44271,-1.6770886 -0.44271,-0.5520851 -1.22917,-0.5520851 -0.796878,0 -1.239588,0.5520851 -0.437501,0.5468767 -0.437501,1.6770886 0,1.0937534 0.44271,1.6614636 0.442709,0.5625018 1.234379,0.5625018 0.781252,0 1.223962,-0.5572935 0.447918,-0.5625018 0.447918,-1.6666719 z"
         id="path120403" />
      <path
         d="M 87.94081,8.2262707 H 86.649139 L 84.315798,5.6793876 83.680379,6.2835562 V 8.2262707 H 82.70121 V 0.12207841 h 0.979169 V 5.3200115 L 86.508513,2.408544 h 1.234379 l -2.703133,2.6875085 z"
         id="path120405" />
      <path
         d="m 93.794998,8.2262707 h -0.97917 V 7.5804353 q -0.494793,0.3906262 -0.94792,0.5989602 -0.453126,0.208334 -1.000003,0.208334 -0.91667,0 -1.427088,-0.5572934 Q 88.930399,7.2679343 88.930399,6.1845976 V 2.408544 h 0.97917 v 3.3125104 q 0,0.4427098 0.04167,0.7604191 0.04167,0.312501 0.177084,0.53646 0.140626,0.2291674 0.364585,0.3333344 0.223959,0.104167 0.651044,0.104167 0.380209,0 0.828127,-0.1979173 0.453127,-0.1979173 0.843753,-0.5052099 V 2.408544 h 0.97917 z"
         id="path120407" />
      <path
         d="M 100.58669,8.2262707 H 99.607518 V 4.9137602 q 0,-0.4010429 -0.04688,-0.7500024 -0.04687,-0.3541677 -0.171875,-0.552085 -0.130209,-0.2187507 -0.375001,-0.3229177 -0.244793,-0.1093754 -0.635419,-0.1093754 -0.401043,0 -0.838544,0.1979173 -0.437502,0.1979173 -0.838545,0.50521 V 8.2262707 H 95.722089 V 2.408544 h 0.979169 v 0.6458353 q 0.458335,-0.3802095 0.94792,-0.5937518 0.489585,-0.2135424 1.005212,-0.2135424 0.942711,0 1.4375,0.5677101 0.4948,0.5677102 0.4948,1.6354219 z"
         id="path120409" />
      <path
         d="m 107.43045,5.3200115 q 0,1.4218795 -0.72917,2.2447988 -0.72917,0.8229192 -1.95313,0.8229192 -1.23438,0 -1.96355,-0.8229192 -0.72396,-0.8229193 -0.72396,-2.2447988 0,-1.4218795 0.72396,-2.2447988 0.72917,-0.8281276 1.96355,-0.8281276 1.22396,0 1.95313,0.8281276 0.72917,0.8229193 0.72917,2.2447988 z m -1.01042,0 q 0,-1.1302119 -0.44271,-1.6770886 -0.44271,-0.5520851 -1.22917,-0.5520851 -0.79687,0 -1.23958,0.5520851 -0.43751,0.5468767 -0.43751,1.6770886 0,1.0937534 0.44271,1.6614636 0.44271,0.5625018 1.23438,0.5625018 0.78126,0 1.22396,-0.5572935 0.44792,-0.5625018 0.44792,-1.6666719 z"
         id="path120411" />
      <path
         d="M 109.93567,8.2262707 H 108.9565 V 0.12207841 h 0.97917 z"
         id="path120413" />
      <path
         d="m 116.39403,8.2262707 h -0.97396 V 7.6064771 q -0.13021,0.088542 -0.35417,0.2500007 -0.21875,0.1562505 -0.42709,0.2500008 -0.24479,0.1197921 -0.5625,0.1979173 -0.31771,0.083334 -0.74479,0.083334 -0.78646,0 -1.33334,-0.520835 -0.54688,-0.5208349 -0.54688,-1.3281292 0,-0.6614604 0.28126,-1.0677117 0.28645,-0.4114596 0.8125,-0.6458353 0.53125,-0.2343758 1.27604,-0.3177094 0.7448,-0.083334 1.59897,-0.1250004 V 4.2314664 q 0,-0.3333344 -0.11979,-0.5520851 -0.11459,-0.2187507 -0.33334,-0.3437511 -0.20833,-0.119792 -0.5,-0.1614588 -0.29167,-0.041667 -0.60938,-0.041667 -0.38542,0 -0.85938,0.104167 -0.47396,0.098959 -0.97917,0.2916676 h -0.0521 V 2.5335444 q 0.28646,-0.078125 0.82813,-0.1718756 0.54167,-0.09375 1.06771,-0.09375 0.61459,0 1.06771,0.104167 0.45834,0.098959 0.79167,0.3437511 0.32813,0.2395841 0.5,0.6197936 0.17188,0.3802096 0.17188,0.9427113 z M 115.42007,6.7939745 V 5.1741777 q -0.44792,0.026042 -1.0573,0.078125 -0.60417,0.052084 -0.95833,0.1510422 -0.42188,0.119792 -0.6823,0.3750012 -0.26042,0.2500008 -0.26042,0.6927105 0,0.5000016 0.30209,0.7552107 0.30208,0.2500008 0.92188,0.2500008 0.51562,0 0.94271,-0.1979173 0.42708,-0.2031256 0.79167,-0.4843763 z"
         id="path120415" />
      <path
         d="m 125.5451,2.408544 -1.51563,5.8177267 h -0.90625 l -1.4948,-4.4843892 -1.48438,4.4843892 H 119.243 L 117.71174,2.408544 h 1.02084 l 1.06771,4.5052225 1.45313,-4.5052225 h 0.80729 l 1.48959,4.5052225 1.01042,-4.5052225 z"
         id="path120417" />
      <path
         d="m 128.19094,8.2262707 h -1.2448 V 6.741891 h 1.2448 z"
         id="path120419" />
      <path
         d="m 134.77429,7.8616862 q -0.48958,0.2343757 -0.93229,0.3645845 -0.4375,0.1302087 -0.9323,0.1302087 -0.63021,0 -1.15625,-0.1822922 -0.52604,-0.1875006 -0.90105,-0.5625018 -0.3802,-0.3750012 -0.58854,-0.9479197 -0.20833,-0.5729184 -0.20833,-1.3385459 0,-1.4270878 0.78125,-2.2395904 0.78646,-0.8125025 2.07292,-0.8125025 0.5,0 0.97917,0.1406254 0.48438,0.1406255 0.88542,0.3437511 v 1.0885451 h -0.0521 q -0.44792,-0.3489594 -0.92709,-0.53646 -0.47396,-0.1875006 -0.92708,-0.1875006 -0.83334,0 -1.31772,0.5625018 -0.47916,0.5572934 -0.47916,1.6406301 0,1.0520867 0.46875,1.6197968 0.47396,0.5625018 1.32813,0.5625018 0.29687,0 0.60416,-0.078125 0.3073,-0.078125 0.55209,-0.2031257 0.21354,-0.1093753 0.40104,-0.2291674 0.1875,-0.1250004 0.29688,-0.2135423 h 0.0521 z"
         id="path120421" />
      <path
         d="m 140.98786,5.3200115 q 0,1.4218795 -0.72917,2.2447988 -0.72917,0.8229192 -1.95313,0.8229192 -1.23438,0 -1.96355,-0.8229192 -0.72396,-0.8229193 -0.72396,-2.2447988 0,-1.4218795 0.72396,-2.2447988 0.72917,-0.8281276 1.96355,-0.8281276 1.22396,0 1.95313,0.8281276 0.72917,0.8229193 0.72917,2.2447988 z m -1.01042,0 q 0,-1.1302119 -0.44271,-1.6770886 -0.44271,-0.5520851 -1.22917,-0.5520851 -0.79688,0 -1.23959,0.5520851 -0.4375,0.5468767 -0.4375,1.6770886 0,1.0937534 0.44271,1.6614636 0.44271,0.5625018 1.23438,0.5625018 0.78125,0 1.22396,-0.5572935 0.44792,-0.5625018 0.44792,-1.6666719 z"
         id="path120423" />
      <path
         d="m 150.9931,8.2262707 h -0.97917 V 4.9137602 q 0,-0.3750012 -0.0365,-0.7239606 -0.0312,-0.3489594 -0.14062,-0.5572934 -0.11979,-0.2239591 -0.34375,-0.3385428 -0.22396,-0.1145837 -0.64584,-0.1145837 -0.41146,0 -0.82292,0.208334 -0.41146,0.2031257 -0.82292,0.520835 0.0156,0.119792 0.026,0.2812509 0.0104,0.1562505 0.0104,0.312501 v 3.7239701 h -0.97917 V 4.9137602 q 0,-0.3854179 -0.0365,-0.729169 -0.0312,-0.3489594 -0.14062,-0.5572934 -0.11979,-0.223959 -0.34375,-0.3333344 -0.22396,-0.1145837 -0.64584,-0.1145837 -0.40104,0 -0.80729,0.1979173 -0.40105,0.1979173 -0.80209,0.50521 v 4.3437637 h -0.97917 V 2.408544 h 0.97917 v 0.6458353 q 0.45834,-0.3802095 0.91146,-0.5937518 0.45834,-0.2135424 0.97396,-0.2135424 0.59376,0 1.00522,0.2500008 0.41666,0.2500008 0.61979,0.6927105 0.59375,-0.5000015 1.08334,-0.7187522 0.48958,-0.2239591 1.04687,-0.2239591 0.95834,0 1.41147,0.5833352 0.45833,0.5781268 0.45833,1.6197968 z"
         id="path120425" />
    </g>
  </g>
</svg>
