<svg xmlns="http://www.w3.org/2000/svg" viewBox="0 0 144.57 11.06"><g id="レイヤー_2" data-name="レイヤー 2"><g id="レイヤー_1-2" data-name="レイヤー 1"><path d="M0,7.88l.49-.65a2.6,2.6,0,0,0,1.72.69C3,7.92,3.35,7.51,3.35,7S2.67,6.15,2,5.91C1.2,5.61.28,5.21.28,4.23s.75-1.66,2-1.66a2.92,2.92,0,0,1,1.81.66l-.47.63A2.16,2.16,0,0,0,2.3,3.34c-.73,0-1.07.39-1.07.84s.63.76,1.29,1C3.37,5.5,4.3,5.85,4.3,7c0,.94-.75,1.73-2.13,1.73A3.5,3.5,0,0,1,0,7.88Z"/><path d="M5.31,7c0-1.27,1.1-1.9,3.58-2.17,0-.75-.25-1.48-1.2-1.48A3.21,3.21,0,0,0,6,4l-.38-.68a4.26,4.26,0,0,1,2.29-.76c1.42,0,2,1,2,2.4V8.54H9.06L9,7.85H9A3.13,3.13,0,0,1,7,8.69,1.59,1.59,0,0,1,5.31,7Zm3.58.09V5.5C6.94,5.74,6.28,6.22,6.28,7s.45.93,1,.93A2.38,2.38,0,0,0,8.89,7.12Z"/><path d="M11.54.88a.68.68,0,1,1,.68.64A.65.65,0,0,1,11.54.88Zm.18,1.83h1V8.54h-1Z"/><path d="M14.09,10.94l.19-.79a1.56,1.56,0,0,0,.45.09c.65,0,1.07-.53,1.31-1.25l.13-.43L13.83,2.71h1L16,5.94c.18.51.38,1.11.57,1.64h.05c.16-.53.33-1.12.49-1.64l1-3.23h1L17,9c-.42,1.15-1,2-2.19,2A1.92,1.92,0,0,1,14.09,10.94Z"/><path d="M19.8,5.64a2.72,2.72,0,1,1,5.4,0,2.72,2.72,0,1,1-5.4,0Zm4.38,0c0-1.34-.68-2.25-1.68-2.25s-1.68.91-1.68,2.25.68,2.23,1.68,2.23S24.18,7,24.18,5.64Z"/><path d="M26.41,7.94a.72.72,0,1,1,.71.75A.72.72,0,0,1,26.41,7.94Z"/><path d="M29.6,2.71h.82l.08,1.07h0a2,2,0,0,1,1.66-1.21,1.3,1.3,0,0,1,.62.12l-.18.87a1.48,1.48,0,0,0-.57-.1c-.49,0-1.08.36-1.47,1.34V8.54h-1Z"/><path d="M33.21,5.64a2.81,2.81,0,0,1,2.62-3.07c1.49,0,2.33,1.07,2.33,2.74a3.06,3.06,0,0,1,0,.56H34.19a1.93,1.93,0,0,0,1.93,2,2.63,2.63,0,0,0,1.46-.46l.35.64A3.38,3.38,0,0,1,36,8.69,2.79,2.79,0,0,1,33.21,5.64Zm4.08-.48c0-1.17-.53-1.8-1.44-1.8a1.78,1.78,0,0,0-1.67,1.8Z"/><path d="M39.17,5.64A2.83,2.83,0,0,1,42,2.57a2.48,2.48,0,0,1,1.7.68l-.5.66A1.68,1.68,0,0,0,42,3.39c-1,0-1.83.91-1.83,2.25S40.92,7.87,42,7.87a2.13,2.13,0,0,0,1.37-.58l.42.66a2.8,2.8,0,0,1-1.88.74A2.74,2.74,0,0,1,39.17,5.64Z"/><path d="M45.07,2.71h.81L46,3.78h0a2,2,0,0,1,1.66-1.21,1.3,1.3,0,0,1,.62.12l-.18.87a1.52,1.52,0,0,0-.57-.1c-.49,0-1.08.36-1.47,1.34V8.54h-1Z"/><path d="M49.16,6.41V2.71h1V6.28c0,1.09.33,1.55,1.1,1.55.6,0,1-.29,1.56-1V2.71h1V8.54H53l-.08-.91h0a2.46,2.46,0,0,1-1.92,1.06C49.71,8.69,49.16,7.9,49.16,6.41Z"/><path d="M55.58.88a.68.68,0,1,1,.68.64A.65.65,0,0,1,55.58.88Zm.18,1.83h1V8.54h-1Z"/><path d="M58.89,6.74V3.52H58V2.77l.91-.06.12-1.63h.82V2.71h1.58v.81H59.87V6.76c0,.71.23,1.12.9,1.12a1.92,1.92,0,0,0,.67-.15l.19.74a3.58,3.58,0,0,1-1.08.22C59.31,8.69,58.89,7.9,58.89,6.74Z"/><path d="M62.39,6.1a5,5,0,0,1,5-5.31,3.72,3.72,0,0,1,3.94,4C71.34,6.87,70,8,68.94,8A1.12,1.12,0,0,1,67.69,7h0a2.05,2.05,0,0,1-1.45.83c-.82,0-1.45-.61-1.45-1.7,0-1.28.9-2.79,2.3-2.79A1,1,0,0,1,68,4h0l.13-.49h.66l-.47,2.4c-.24,1,0,1.4.65,1.4s1.61-.92,1.61-2.47a3.09,3.09,0,0,0-3.32-3.35,4.37,4.37,0,0,0-4.2,4.61,3.4,3.4,0,0,0,3.57,3.67,3.92,3.92,0,0,0,1.94-.53l.27.58a4.33,4.33,0,0,1-2.29.62A4,4,0,0,1,62.39,6.1Zm5.12.38.34-1.91a.86.86,0,0,0-.77-.5c-.94,0-1.52,1.14-1.52,2s.36,1.08.84,1.08S67.09,7,67.51,6.48Z"/><path d="M72.5,5.64a2.72,2.72,0,1,1,5.4,0,2.72,2.72,0,1,1-5.4,0Zm4.38,0c0-1.34-.68-2.25-1.68-2.25s-1.68.91-1.68,2.25.68,2.23,1.68,2.23S76.88,7,76.88,5.64Z"/><path d="M79.39,0h1V5.79h0l2.49-3.08H84L82,5.06l2.21,3.48H83.15l-1.7-2.8L80.36,7V8.54h-1Z"/><path d="M85.08,6.41V2.71h1V6.28c0,1.09.33,1.55,1.1,1.55.59,0,1-.29,1.56-1V2.71h1V8.54H88.9l-.08-.91h0a2.46,2.46,0,0,1-1.92,1.06C85.63,8.69,85.08,7.9,85.08,6.41Z"/><path d="M91.69,2.71h.81l.09.85h0a2.77,2.77,0,0,1,1.95-1c1.23,0,1.78.79,1.78,2.28V8.54h-1V5c0-1.09-.33-1.55-1.1-1.55a2.22,2.22,0,0,0-1.6.89V8.54h-1Z"/><path d="M97.82,5.64a2.72,2.72,0,1,1,5.4,0,2.72,2.72,0,1,1-5.4,0Zm4.38,0c0-1.34-.68-2.25-1.68-2.25s-1.68.91-1.68,2.25.68,2.23,1.68,2.23S102.2,7,102.2,5.64Z"/><path d="M104.71,7.37V0h1V7.45c0,.3.14.42.28.42a.73.73,0,0,0,.22,0l.13.76a1.61,1.61,0,0,1-.57.09C105,8.69,104.71,8.22,104.71,7.37Z"/><path d="M107.41,7c0-1.27,1.09-1.9,3.58-2.17,0-.75-.25-1.48-1.21-1.48a3.15,3.15,0,0,0-1.73.63l-.39-.68A4.29,4.29,0,0,1,110,2.57c1.42,0,2,1,2,2.4V8.54h-.81l-.08-.69h0a3.08,3.08,0,0,1-1.92.84A1.59,1.59,0,0,1,107.41,7Zm3.58.09V5.5c-2,.24-2.62.72-2.62,1.46s.45.93,1,.93A2.4,2.4,0,0,0,111,7.12Z"/><path d="M113.12,2.71h1L115,6.08c.13.56.24,1.08.35,1.63h0c.12-.55.25-1.08.39-1.63l.9-3.37h1l.91,3.37c.14.56.27,1.08.4,1.63H119c.13-.55.23-1.07.36-1.63l.85-3.37h.94L119.6,8.54h-1.2l-.85-3.13c-.14-.55-.25-1.09-.39-1.68h0c-.12.59-.24,1.15-.4,1.7l-.81,3.11h-1.16Z"/><path d="M121.74,7.94a.72.72,0,0,1,.71-.76.76.76,0,0,1,0,1.51A.72.72,0,0,1,121.74,7.94Z"/><path d="M124.36,5.64a2.83,2.83,0,0,1,2.81-3.07,2.48,2.48,0,0,1,1.7.68l-.5.66a1.68,1.68,0,0,0-1.16-.52c-1,0-1.83.91-1.83,2.25s.73,2.23,1.81,2.23a2.09,2.09,0,0,0,1.36-.58L129,8a2.8,2.8,0,0,1-1.88.74A2.74,2.74,0,0,1,124.36,5.64Z"/><path d="M129.58,5.64a2.73,2.73,0,1,1,5.41,0,2.72,2.72,0,1,1-5.41,0Zm4.39,0c0-1.34-.68-2.25-1.69-2.25s-1.68.91-1.68,2.25.68,2.23,1.68,2.23S134,7,134,5.64Z"/><path d="M136.52,2.71h.82l.08.85h0a2.6,2.6,0,0,1,1.82-1,1.55,1.55,0,0,1,1.61,1.11,2.75,2.75,0,0,1,1.92-1.11c1.2,0,1.77.79,1.77,2.28V8.54h-1V5c0-1.09-.35-1.55-1.09-1.55a2.13,2.13,0,0,0-1.46.89V8.54h-1V5c0-1.09-.34-1.55-1.08-1.55a2.14,2.14,0,0,0-1.46.89V8.54h-1Z"/></g></g></svg>